<svg width="24" height="24" viewBox="0 0 24 24" fill="none" xmlns="http://www.w3.org/2000/svg">
<path d="M10.8674 12.4643L16.5345 6.75238C16.8326 6.45006 17 6.04111 17 5.61483C17 5.18856 16.8326 4.7796 16.5345 4.47728C16.3857 4.32605 16.2086 4.20601 16.0135 4.12409C15.8184 4.04217 15.6092 4 15.3979 4C15.1865 4 14.9773 4.04217 14.7822 4.12409C14.5871 4.20601 14.4101 4.32605 14.2612 4.47728L7.47354 11.3187C7.32349 11.4687 7.20439 11.6472 7.12312 11.8438C7.04184 12.0404 7 12.2513 7 12.4643C7 12.6773 7.04184 12.8882 7.12312 13.0849C7.20439 13.2815 7.32349 13.4599 7.47354 13.6099L14.2612 20.532C14.4108 20.6816 14.5882 20.7999 14.7833 20.8802C14.9783 20.9605 15.1872 21.0012 15.3979 21C15.6085 21.0012 15.8174 20.9605 16.0124 20.8802C16.2075 20.7999 16.3849 20.6816 16.5345 20.532C16.8326 20.2297 17 19.8208 17 19.3945C17 18.9682 16.8326 18.5593 16.5345 18.2569L10.8674 12.4643Z" fill="black"/>
</svg>
