<svg viewBox="0 0 154 58" fill="none" xmlns="http://www.w3.org/2000/svg">
<path d="M0.268 0.295998H8.692C10.996 0.295998 12.904 0.655999 14.416 1.376C15.952 2.096 17.176 3.056 18.088 4.256C19 5.456 19.636 6.824 19.996 8.36C20.38 9.896 20.572 11.48 20.572 13.112C20.572 14.936 20.332 16.64 19.852 18.224C19.396 19.784 18.676 21.14 17.692 22.292C16.708 23.444 15.46 24.356 13.948 25.028C12.46 25.676 10.684 26 8.62 26H0.268V0.295998ZM8.764 24.632C9.964 24.632 11.164 24.452 12.364 24.092C13.588 23.708 14.692 23.084 15.676 22.22C16.66 21.332 17.452 20.156 18.052 18.692C18.676 17.204 18.988 15.344 18.988 13.112C18.988 11.36 18.808 9.86 18.448 8.612C18.112 7.364 17.656 6.32 17.08 5.48C16.528 4.616 15.88 3.944 15.136 3.464C14.416 2.96 13.66 2.576 12.868 2.312C12.1 2.048 11.32 1.88 10.528 1.808C9.76 1.712 9.064 1.664 8.44 1.664H1.852V24.632H8.764ZM23.1637 16.748C23.1637 15.428 23.3437 14.192 23.7037 13.04C24.0877 11.864 24.6397 10.832 25.3597 9.944C26.0797 9.056 26.9677 8.36 28.0237 7.856C29.0797 7.328 30.2917 7.064 31.6597 7.064C33.0277 7.064 34.2397 7.328 35.2957 7.856C36.3517 8.36 37.2397 9.056 37.9597 9.944C38.6797 10.832 39.2197 11.864 39.5797 13.04C39.9637 14.192 40.1557 15.428 40.1557 16.748C40.1557 18.068 39.9637 19.316 39.5797 20.492C39.2197 21.668 38.6797 22.7 37.9597 23.588C37.2397 24.452 36.3517 25.148 35.2957 25.676C34.2397 26.18 33.0277 26.432 31.6597 26.432C30.2917 26.432 29.0797 26.18 28.0237 25.676C26.9677 25.148 26.0797 24.452 25.3597 23.588C24.6397 22.7 24.0877 21.668 23.7037 20.492C23.3437 19.316 23.1637 18.068 23.1637 16.748ZM24.5317 16.748C24.5317 17.852 24.6877 18.92 24.9997 19.952C25.3117 20.96 25.7677 21.86 26.3677 22.652C26.9677 23.444 27.7117 24.08 28.5997 24.56C29.4877 25.016 30.5077 25.244 31.6597 25.244C32.8117 25.244 33.8317 25.016 34.7197 24.56C35.6077 24.08 36.3517 23.444 36.9517 22.652C37.5517 21.86 38.0077 20.96 38.3197 19.952C38.6317 18.92 38.7877 17.852 38.7877 16.748C38.7877 15.644 38.6317 14.588 38.3197 13.58C38.0077 12.548 37.5517 11.636 36.9517 10.844C36.3517 10.052 35.6077 9.428 34.7197 8.972C33.8317 8.492 32.8117 8.252 31.6597 8.252C30.5077 8.252 29.4877 8.492 28.5997 8.972C27.7117 9.428 26.9677 10.052 26.3677 10.844C25.7677 11.636 25.3117 12.548 24.9997 13.58C24.6877 14.588 24.5317 15.644 24.5317 16.748ZM43.6877 0.295998H45.0557V11.42H45.1277C45.3917 10.7 45.7637 10.076 46.2437 9.548C46.7237 8.996 47.2757 8.54 47.8997 8.18C48.5237 7.796 49.1957 7.52 49.9157 7.352C50.6357 7.16 51.3797 7.064 52.1477 7.064C53.5157 7.064 54.6917 7.304 55.6757 7.784C56.6837 8.264 57.5237 8.924 58.1957 9.764C58.8677 10.604 59.3597 11.588 59.6717 12.716C60.0077 13.82 60.1757 15.02 60.1757 16.316C60.1757 18.524 59.8757 20.3 59.2757 21.644C58.6757 22.964 57.9557 23.984 57.1157 24.704C56.2757 25.4 55.3997 25.856 54.4877 26.072C53.5757 26.312 52.7957 26.432 52.1477 26.432C50.9237 26.432 49.8797 26.24 49.0157 25.856C48.1757 25.472 47.4797 25.028 46.9277 24.524C46.3757 23.996 45.9557 23.48 45.6677 22.976C45.3797 22.472 45.1997 22.1 45.1277 21.86H45.0557V26H43.6877V0.295998ZM52.1477 25.244C53.3717 25.244 54.4037 24.98 55.2437 24.452C56.0837 23.924 56.7677 23.24 57.2957 22.4C57.8237 21.536 58.2077 20.576 58.4477 19.52C58.6877 18.44 58.8077 17.372 58.8077 16.316C58.8077 15.284 58.6637 14.288 58.3757 13.328C58.1117 12.368 57.6917 11.516 57.1157 10.772C56.5637 10.004 55.8677 9.392 55.0277 8.936C54.2117 8.48 53.2517 8.252 52.1477 8.252C50.9477 8.252 49.9037 8.456 49.0157 8.864C48.1277 9.272 47.3957 9.836 46.8197 10.556C46.2437 11.276 45.8117 12.128 45.5237 13.112C45.2357 14.096 45.0917 15.164 45.0917 16.316C45.0917 17.444 45.2237 18.548 45.4877 19.628C45.7517 20.708 46.1597 21.668 46.7117 22.508C47.2877 23.324 48.0197 23.984 48.9077 24.488C49.7957 24.992 50.8757 25.244 52.1477 25.244ZM63.9076 16.928V17.144C63.9076 18.224 64.0516 19.256 64.3396 20.24C64.6276 21.224 65.0476 22.088 65.5996 22.832C66.1756 23.576 66.8836 24.164 67.7236 24.596C68.5876 25.028 69.5836 25.244 70.7116 25.244C72.5596 25.244 74.0236 24.764 75.1036 23.804C76.1836 22.82 76.9276 21.464 77.3356 19.736H78.7036C78.2956 21.896 77.4076 23.552 76.0396 24.704C74.6956 25.856 72.9076 26.432 70.6756 26.432C69.3076 26.432 68.1076 26.192 67.0756 25.712C66.0676 25.208 65.2156 24.536 64.5196 23.696C63.8476 22.832 63.3436 21.824 63.0076 20.672C62.6716 19.496 62.5036 18.236 62.5036 16.892C62.5036 15.596 62.6716 14.36 63.0076 13.184C63.3676 11.984 63.8956 10.94 64.5916 10.052C65.2876 9.14 66.1516 8.42 67.1836 7.892C68.2396 7.34 69.4756 7.064 70.8916 7.064C72.1876 7.064 73.3276 7.304 74.3116 7.784C75.3196 8.264 76.1596 8.924 76.8316 9.764C77.5036 10.58 78.0076 11.54 78.3436 12.644C78.7036 13.724 78.8836 14.888 78.8836 16.136C78.8836 16.256 78.8716 16.4 78.8476 16.568C78.8476 16.712 78.8476 16.832 78.8476 16.928H63.9076ZM77.4796 15.74C77.4316 14.732 77.2636 13.784 76.9756 12.896C76.6876 11.984 76.2556 11.192 75.6796 10.52C75.1276 9.824 74.4436 9.272 73.6276 8.864C72.8356 8.456 71.9236 8.252 70.8916 8.252C69.7876 8.252 68.8156 8.468 67.9756 8.9C67.1356 9.308 66.4276 9.86 65.8516 10.556C65.2756 11.228 64.8316 12.02 64.5196 12.932C64.2076 13.844 64.0156 14.78 63.9436 15.74H77.4796ZM83.4035 11.6H83.5115C83.6795 11 83.9795 10.436 84.4115 9.908C84.8675 9.38 85.4075 8.924 86.0315 8.54C86.6795 8.156 87.3875 7.868 88.1555 7.676C88.9475 7.46 89.7635 7.364 90.6035 7.388V8.756C89.8835 8.66 89.0555 8.732 88.1195 8.972C87.2075 9.212 86.3315 9.74 85.4915 10.556C85.1555 10.916 84.8555 11.264 84.5915 11.6C84.3515 11.936 84.1475 12.308 83.9795 12.716C83.8115 13.124 83.6795 13.58 83.5835 14.084C83.4875 14.588 83.4275 15.188 83.4035 15.884V26H82.0355V7.496H83.4035V11.6ZM92.0911 7.496H93.4591V11.276H93.5311C93.6751 10.7 93.9271 10.16 94.2871 9.656C94.6471 9.128 95.0791 8.672 95.5831 8.288C96.1111 7.904 96.6871 7.604 97.3111 7.388C97.9591 7.172 98.6311 7.064 99.3271 7.064C100.215 7.064 100.983 7.184 101.631 7.424C102.279 7.64 102.831 7.94 103.287 8.324C103.743 8.684 104.103 9.104 104.367 9.584C104.631 10.04 104.811 10.508 104.907 10.988H104.979C105.531 9.692 106.263 8.72 107.175 8.072C108.111 7.4 109.335 7.064 110.847 7.064C111.687 7.064 112.455 7.196 113.151 7.46C113.871 7.7 114.483 8.084 114.987 8.612C115.515 9.116 115.923 9.764 116.211 10.556C116.499 11.348 116.643 12.284 116.643 13.364V26H115.275V13.328C115.275 12.152 115.095 11.228 114.735 10.556C114.375 9.884 113.943 9.38 113.439 9.044C112.959 8.684 112.467 8.468 111.963 8.396C111.483 8.3 111.111 8.252 110.847 8.252C110.007 8.252 109.227 8.396 108.507 8.684C107.811 8.972 107.199 9.404 106.671 9.98C106.167 10.556 105.771 11.276 105.483 12.14C105.195 12.98 105.051 13.952 105.051 15.056V26H103.683V13.328C103.683 12.176 103.503 11.264 103.143 10.592C102.807 9.896 102.399 9.38 101.919 9.044C101.463 8.708 100.983 8.492 100.479 8.396C99.9991 8.3 99.6151 8.252 99.3271 8.252C98.6791 8.252 98.0071 8.384 97.3111 8.648C96.6151 8.912 95.9791 9.32 95.4031 9.872C94.8271 10.424 94.3591 11.132 93.9991 11.996C93.6391 12.86 93.4591 13.88 93.4591 15.056V26H92.0911V7.496ZM132.983 22.328H132.911C132.695 22.88 132.383 23.408 131.975 23.912C131.567 24.392 131.063 24.824 130.463 25.208C129.887 25.592 129.227 25.892 128.483 26.108C127.739 26.324 126.923 26.432 126.035 26.432C124.067 26.432 122.543 26.012 121.463 25.172C120.383 24.308 119.843 22.988 119.843 21.212C119.843 20.132 120.059 19.256 120.491 18.584C120.923 17.888 121.463 17.348 122.111 16.964C122.783 16.556 123.515 16.268 124.307 16.1C125.123 15.932 125.903 15.812 126.647 15.74L128.771 15.56C129.755 15.488 130.523 15.38 131.075 15.236C131.651 15.068 132.083 14.852 132.371 14.588C132.659 14.3 132.839 13.94 132.911 13.508C132.983 13.076 133.019 12.536 133.019 11.888C133.019 11.384 132.923 10.916 132.731 10.484C132.539 10.052 132.239 9.668 131.831 9.332C131.423 8.996 130.895 8.732 130.247 8.54C129.599 8.348 128.807 8.252 127.871 8.252C126.215 8.252 124.871 8.66 123.839 9.476C122.831 10.292 122.279 11.528 122.183 13.184H120.815C120.911 11.144 121.559 9.62 122.759 8.612C123.983 7.58 125.711 7.064 127.943 7.064C130.175 7.064 131.795 7.508 132.803 8.396C133.835 9.26 134.351 10.4 134.351 11.816V22.58C134.351 22.844 134.351 23.108 134.351 23.372C134.375 23.636 134.423 23.876 134.495 24.092C134.567 24.308 134.687 24.488 134.855 24.632C135.023 24.752 135.263 24.812 135.575 24.812C135.815 24.812 136.151 24.776 136.583 24.704V25.856C136.223 25.952 135.851 26 135.467 26C134.915 26 134.471 25.928 134.135 25.784C133.823 25.64 133.583 25.448 133.415 25.208C133.247 24.968 133.127 24.692 133.055 24.38C133.007 24.044 132.983 23.684 132.983 23.3V22.328ZM132.983 15.488C132.647 15.896 132.131 16.172 131.435 16.316C130.763 16.46 130.007 16.568 129.167 16.64L126.863 16.856C126.191 16.928 125.519 17.036 124.847 17.18C124.175 17.3 123.563 17.516 123.011 17.828C122.483 18.14 122.051 18.572 121.715 19.124C121.379 19.652 121.211 20.348 121.211 21.212C121.211 22.58 121.643 23.6 122.507 24.272C123.371 24.92 124.559 25.244 126.071 25.244C127.631 25.244 128.867 24.968 129.779 24.416C130.691 23.84 131.387 23.192 131.867 22.472C132.347 21.728 132.647 21.02 132.767 20.348C132.911 19.652 132.983 19.184 132.983 18.944V15.488ZM138.707 7.496H140.075V11.456H140.147C140.387 10.76 140.723 10.148 141.155 9.62C141.611 9.068 142.127 8.6 142.703 8.216C143.303 7.832 143.951 7.544 144.647 7.352C145.343 7.16 146.051 7.064 146.771 7.064C147.851 7.064 148.763 7.196 149.507 7.46C150.275 7.724 150.899 8.072 151.379 8.504C151.859 8.936 152.231 9.428 152.495 9.98C152.783 10.508 152.987 11.048 153.107 11.6C153.227 12.152 153.299 12.692 153.323 13.22C153.347 13.724 153.359 14.168 153.359 14.552V26H151.991V14.3C151.991 13.844 151.955 13.268 151.883 12.572C151.811 11.876 151.595 11.216 151.235 10.592C150.899 9.944 150.371 9.392 149.651 8.936C148.955 8.48 147.983 8.252 146.735 8.252C145.679 8.252 144.743 8.444 143.927 8.828C143.111 9.212 142.415 9.752 141.839 10.448C141.263 11.12 140.819 11.936 140.507 12.896C140.219 13.832 140.075 14.864 140.075 15.992V26H138.707V7.496Z" fill="black"/>
<path d="M71.56 34.152V57H74.44V37.992H74.504L81.64 57H84.232L91.368 37.992H91.432V57H94.312V34.152H90.152L82.92 53.352L75.72 34.152H71.56ZM112.619 57V40.456H109.899V49.8C109.899 50.5467 109.792 51.24 109.579 51.88C109.387 52.4987 109.088 53.0427 108.683 53.512C108.278 53.9813 107.766 54.344 107.147 54.6C106.55 54.856 105.835 54.984 105.003 54.984C103.958 54.984 103.136 54.6853 102.539 54.088C101.942 53.4907 101.643 52.68 101.643 51.656V40.456H98.923V51.336C98.923 52.232 99.0083 53.0533 99.179 53.8C99.371 54.5253 99.691 55.1547 100.139 55.688C100.587 56.2213 101.174 56.6373 101.899 56.936C102.624 57.2133 103.531 57.352 104.619 57.352C105.835 57.352 106.891 57.1173 107.787 56.648C108.683 56.1573 109.419 55.4 109.995 54.376H110.059V57H112.619ZM118.368 51.784H115.648C115.691 52.808 115.904 53.6827 116.288 54.408C116.672 55.112 117.184 55.688 117.824 56.136C118.464 56.5627 119.2 56.872 120.032 57.064C120.864 57.256 121.739 57.352 122.656 57.352C123.488 57.352 124.32 57.2667 125.152 57.096C126.006 56.9467 126.763 56.6693 127.424 56.264C128.107 55.8587 128.651 55.3253 129.056 54.664C129.483 54.0027 129.696 53.1707 129.696 52.168C129.696 51.3787 129.536 50.7173 129.216 50.184C128.918 49.6507 128.512 49.2133 128 48.872C127.51 48.5093 126.934 48.2213 126.272 48.008C125.632 47.7947 124.971 47.6133 124.288 47.464C123.648 47.3147 123.008 47.176 122.368 47.048C121.728 46.8987 121.152 46.728 120.64 46.536C120.128 46.3227 119.702 46.0667 119.36 45.768C119.04 45.448 118.88 45.0533 118.88 44.584C118.88 44.1573 118.987 43.816 119.2 43.56C119.414 43.2827 119.691 43.0693 120.032 42.92C120.374 42.7493 120.747 42.632 121.152 42.568C121.579 42.504 121.995 42.472 122.4 42.472C122.848 42.472 123.286 42.5253 123.712 42.632C124.16 42.7173 124.566 42.8667 124.928 43.08C125.291 43.2933 125.59 43.5813 125.824 43.944C126.059 44.2853 126.198 44.7227 126.24 45.256H128.96C128.896 44.2533 128.683 43.4213 128.32 42.76C127.958 42.0773 127.467 41.544 126.848 41.16C126.251 40.7547 125.558 40.4773 124.768 40.328C123.979 40.1573 123.115 40.072 122.176 40.072C121.451 40.072 120.715 40.168 119.968 40.36C119.243 40.5307 118.582 40.808 117.984 41.192C117.408 41.5547 116.928 42.0347 116.544 42.632C116.182 43.2293 116 43.944 116 44.776C116 45.8427 116.267 46.6747 116.8 47.272C117.334 47.8693 117.995 48.3387 118.784 48.68C119.595 49 120.47 49.256 121.408 49.448C122.347 49.6187 123.211 49.8213 124 50.056C124.811 50.2693 125.483 50.5573 126.016 50.92C126.55 51.2827 126.816 51.816 126.816 52.52C126.816 53.032 126.688 53.4587 126.432 53.8C126.176 54.12 125.846 54.3653 125.44 54.536C125.056 54.7067 124.63 54.824 124.16 54.888C123.691 54.952 123.243 54.984 122.816 54.984C122.262 54.984 121.718 54.9307 121.184 54.824C120.672 54.7173 120.203 54.5467 119.776 54.312C119.371 54.056 119.04 53.7253 118.784 53.32C118.528 52.8933 118.39 52.3813 118.368 51.784ZM135.584 37.48V34.152H132.864V37.48H135.584ZM132.864 40.456V57H135.584V40.456H132.864ZM151.03 45.768H153.846C153.739 44.7867 153.483 43.944 153.078 43.24C152.673 42.5147 152.15 41.9173 151.51 41.448C150.891 40.9787 150.166 40.6373 149.334 40.424C148.523 40.1893 147.649 40.072 146.71 40.072C145.409 40.072 144.267 40.3067 143.286 40.776C142.305 41.224 141.483 41.8533 140.822 42.664C140.182 43.4533 139.702 44.392 139.382 45.48C139.062 46.5467 138.902 47.6987 138.902 48.936C138.902 50.1733 139.062 51.3147 139.382 52.36C139.723 53.384 140.214 54.2693 140.854 55.016C141.515 55.7627 142.326 56.3387 143.286 56.744C144.267 57.1493 145.387 57.352 146.646 57.352C148.758 57.352 150.422 56.7973 151.638 55.688C152.875 54.5787 153.643 53 153.942 50.952H151.158C150.987 52.232 150.518 53.224 149.75 53.928C149.003 54.632 147.958 54.984 146.614 54.984C145.761 54.984 145.025 54.8133 144.406 54.472C143.787 54.1307 143.286 53.6827 142.902 53.128C142.518 52.552 142.23 51.9013 142.038 51.176C141.867 50.4507 141.782 49.704 141.782 48.936C141.782 48.104 141.867 47.304 142.038 46.536C142.209 45.7467 142.486 45.0533 142.87 44.456C143.275 43.8587 143.809 43.3787 144.47 43.016C145.131 42.6533 145.953 42.472 146.934 42.472C148.086 42.472 149.003 42.76 149.686 43.336C150.369 43.912 150.817 44.7227 151.03 45.768Z" fill="black"/>
<rect y="42" width="57" height="15" fill="#B96AC5"/>
</svg>
