<svg width="26" height="24" viewBox="0 0 26 24" fill="none" xmlns="http://www.w3.org/2000/svg">
<path d="M22.2585 16.83L20.1093 14.71C19.647 14.2868 19.0639 14.0063 18.4348 13.9047C17.8058 13.8032 17.1596 13.8851 16.5792 14.14L15.6448 13.24C16.7459 11.8229 17.2488 10.0567 17.0522 8.29684C16.8556 6.537 15.9741 4.91423 14.5852 3.7552C13.1963 2.59618 11.4031 1.98696 9.56654 2.05019C7.73001 2.11341 5.98653 2.84439 4.68708 4.09597C3.38762 5.34755 2.62868 7.0268 2.56304 8.79567C2.49739 10.5645 3.12991 12.2917 4.33327 13.6294C5.53663 14.9672 7.22148 15.8162 9.04863 16.0055C10.8758 16.1949 12.7096 15.7106 14.1809 14.65L15.1049 15.54C14.8091 16.0996 14.7031 16.7346 14.8018 17.3553C14.9005 17.9761 15.199 18.5513 15.6552 19L17.8563 21.12C18.4403 21.6818 19.232 21.9974 20.0574 21.9974C20.8828 21.9974 21.6745 21.6818 22.2585 21.12C22.5551 20.8406 22.7909 20.5069 22.9518 20.1386C23.1127 19.7702 23.1956 19.3746 23.1956 18.975C23.1956 18.5754 23.1127 18.1798 22.9518 17.8114C22.7909 17.4431 22.5551 17.1094 22.2585 16.83ZM13.4541 12.59C12.7276 13.288 11.8026 13.7629 10.7959 13.9549C9.78926 14.1468 8.74615 14.047 7.79833 13.6682C6.85052 13.2894 6.04053 12.6485 5.47069 11.8265C4.90085 11.0046 4.59672 10.0384 4.59672 9.05C4.59672 8.06163 4.90085 7.09544 5.47069 6.27347C6.04053 5.45149 6.85052 4.81062 7.79833 4.43182C8.74615 4.05301 9.78926 3.95325 10.7959 4.14515C11.8026 4.33706 12.7276 4.812 13.4541 5.51C13.9375 5.97446 14.3211 6.52621 14.5828 7.13367C14.8445 7.74112 14.9792 8.39233 14.9792 9.05C14.9792 9.70768 14.8445 10.3589 14.5828 10.9663C14.3211 11.5738 13.9375 12.1255 13.4541 12.59ZM20.7945 19.66C20.698 19.7537 20.5832 19.8281 20.4567 19.8789C20.3301 19.9297 20.1944 19.9558 20.0574 19.9558C19.9203 19.9558 19.7846 19.9297 19.6581 19.8789C19.5316 19.8281 19.4167 19.7537 19.3202 19.66L17.1191 17.54C17.0218 17.447 16.9446 17.3364 16.8919 17.2146C16.8392 17.0927 16.812 16.962 16.812 16.83C16.812 16.698 16.8392 16.5673 16.8919 16.4454C16.9446 16.3236 17.0218 16.213 17.1191 16.12C17.2157 16.0263 17.3305 15.9519 17.457 15.9011C17.5835 15.8503 17.7192 15.8242 17.8563 15.8242C17.9934 15.8242 18.1291 15.8503 18.2556 15.9011C18.3821 15.9519 18.4969 16.0263 18.5934 16.12L20.7945 18.24C20.8919 18.333 20.9691 18.4436 21.0218 18.5654C21.0745 18.6873 21.1017 18.818 21.1017 18.95C21.1017 19.082 21.0745 19.2127 21.0218 19.3346C20.9691 19.4564 20.8919 19.567 20.7945 19.66Z" fill="black"/>
</svg>
